<svg width="65" height="65" viewBox="0 0 65 65" fill="none" xmlns="http://www.w3.org/2000/svg">
<circle cx="32.5" cy="32.5" r="32.5" fill="#6271A2"/>
<circle cx="33" cy="25" r="25" fill="#9886D7"/>
<path d="M39.5859 24.4834C39.3809 24.9847 39.1986 25.4404 39.0391 25.8506C38.9023 26.2607 38.777 26.6253 38.6631 26.9443C38.5492 27.3089 38.4466 27.6279 38.3555 27.9014C38.2643 28.2204 38.1618 28.585 38.0479 28.9951C37.9339 29.3597 37.7858 29.8154 37.6035 30.3623C37.444 30.8864 37.2503 31.513 37.0225 32.2422C36.8402 31.1484 36.5098 30.2826 36.0312 29.6445C35.5527 28.9837 35.0628 28.471 34.5615 28.1064C33.9691 27.6963 33.3311 27.4001 32.6475 27.2178C31.417 27.0127 30.5283 27.0355 29.9814 27.2861C29.4346 27.5368 29.07 27.8558 28.8877 28.2432C28.7965 28.4027 28.694 28.6077 28.5801 28.8584C28.4889 29.0863 28.4092 29.3255 28.3408 29.5762C28.2952 29.8268 28.2839 30.0775 28.3066 30.3281C28.3294 30.5788 28.432 30.7839 28.6143 30.9434C28.7282 31.0573 29.0244 31.2168 29.5029 31.4219C29.9814 31.6042 30.5511 31.8206 31.2119 32.0713C31.8955 32.2992 32.6133 32.5498 33.3652 32.8232C34.14 33.0967 34.8691 33.3701 35.5527 33.6436C36.2363 33.917 36.8288 34.1904 37.3301 34.4639C37.8314 34.7373 38.1618 34.988 38.3213 35.2158C38.458 35.4437 38.6061 35.7513 38.7656 36.1387C38.9479 36.5033 39.0732 36.9134 39.1416 37.3691C39.2327 37.8021 39.2555 38.2578 39.21 38.7363C39.1872 39.1921 39.0618 39.6478 38.834 40.1035C38.6061 40.5592 38.2415 40.9808 37.7402 41.3682C37.2617 41.7555 36.6123 42.0745 35.792 42.3252C34.835 42.6214 33.9121 42.7012 33.0234 42.5645C32.1348 42.4277 31.3145 42.2227 30.5625 41.9492C29.8333 41.6758 29.1953 41.4137 28.6484 41.1631C28.1016 40.8896 27.7142 40.7757 27.4863 40.8213C27.2357 40.8669 26.9508 40.9922 26.6318 41.1973C26.3128 41.4023 26.0052 41.6188 25.709 41.8467C25.4355 42.0518 25.1963 42.2454 24.9912 42.4277C24.7861 42.5872 24.6836 42.6442 24.6836 42.5986C24.6836 42.5531 24.7178 42.4163 24.7861 42.1885C24.8773 41.9606 24.9684 41.6872 25.0596 41.3682C25.1735 41.0264 25.276 40.6618 25.3672 40.2744C25.4811 39.8643 25.5609 39.4769 25.6064 39.1123C25.652 38.8161 25.709 38.4515 25.7773 38.0186C25.8229 37.6312 25.8799 37.1641 25.9482 36.6172C26.0394 36.0475 26.1419 35.3639 26.2559 34.5664C26.3698 35.1589 26.5293 35.6715 26.7344 36.1045C26.9622 36.5374 27.1787 36.9134 27.3838 37.2324C27.6344 37.597 27.8737 37.9046 28.1016 38.1553C28.4434 38.4743 28.8421 38.7705 29.2979 39.0439C29.7764 39.3174 30.2549 39.5566 30.7334 39.7617C31.2119 39.944 31.6676 40.0579 32.1006 40.1035C32.5335 40.1491 32.8981 40.1035 33.1943 39.9668C33.4906 39.8301 33.7412 39.5794 33.9463 39.2148C34.1742 38.8503 34.3337 38.4515 34.4248 38.0186C34.516 37.5856 34.5501 37.1755 34.5273 36.7881C34.5046 36.3779 34.402 36.0475 34.2197 35.7969C34.083 35.6374 33.764 35.4323 33.2627 35.1816C32.7842 34.931 32.2031 34.6576 31.5195 34.3613C30.8587 34.0651 30.1523 33.7575 29.4004 33.4385C28.6712 33.1195 27.9762 32.8005 27.3154 32.4814C26.6774 32.1396 26.1419 31.8206 25.709 31.5244C25.2988 31.2054 25.071 30.9206 25.0254 30.6699C24.9798 30.3053 24.9456 29.9066 24.9229 29.4736C24.9001 29.0179 24.9229 28.5736 24.9912 28.1406C25.0824 27.6849 25.2419 27.252 25.4697 26.8418C25.7204 26.4316 26.085 26.0898 26.5635 25.8164C26.8825 25.6341 27.304 25.4974 27.8281 25.4062C28.3522 25.3151 28.9333 25.2695 29.5713 25.2695C30.2093 25.2467 30.8701 25.2695 31.5537 25.3379C32.2373 25.3835 32.8867 25.4518 33.502 25.543C34.14 25.6113 34.7096 25.7025 35.2109 25.8164C35.735 25.9303 36.1338 26.0329 36.4072 26.124C36.7262 26.238 37.068 26.2493 37.4326 26.1582C37.7516 26.0898 38.0934 25.9417 38.458 25.7139C38.8226 25.486 39.1986 25.0758 39.5859 24.4834Z" fill="#EDE9FC"/>
</svg>
