<?xml version="1.0" encoding="UTF-8"?>
<svg version="1.1" xmlns="http://www.w3.org/2000/svg" width="569" height="366">
<defs>
    <linearGradient id="gradient1" x1="80%" y1="-12%" x2="100%" y2="0%">
      <stop offset="0%" style="stop-color:#785DD6;stop-opacity:1" />
      <stop offset="100%" style="stop-color:#BD93F9;stop-opacity:1" />
    </linearGradient>
  </defs>
<path d="M0 0 C4.44460371 2.70162186 7.8480979 6.2586958 10.1875 10.9375 C10.31723101 13.18617084 10.41689802 15.43662356 10.5 17.6875 C11.1735 27.2824348 15.21041631 31.05695656 21.83203125 37.52734375 C24.82436595 40.58915223 27.434582 43.86331398 30.0625 47.23828125 C33.3373402 51.3980507 36.76904034 55.42341649 40.18359375 59.46875 C42.1875 61.9375 42.1875 61.9375 43.1875 63.9375 C49.17478492 63.53410137 55.04171295 63.01690381 60.9375 61.875 C73.37765918 59.73914043 84.94621208 59.76092057 96.16796875 66.046875 C104.42740193 71.95428416 108.08801978 82.99442954 109.9765625 92.56640625 C110.13683426 93.3525531 110.29710602 94.13869995 110.4622345 94.94866943 C113.38718545 109.62555503 115.86189934 124.39530586 118.43017578 139.13769531 C119.02711627 142.55945517 119.62733704 145.9806361 120.22764874 149.40180588 C120.80942006 152.71827289 121.38994188 156.03495755 121.97001076 159.35172272 C122.24529261 160.92572885 122.52077982 162.49969908 122.79648399 164.07363129 C123.18017083 166.26601095 123.56235935 168.45864649 123.9440918 170.65136719 C124.16074997 171.89311707 124.37740814 173.13486694 124.60063171 174.41424561 C126.64308901 186.67610541 127.88659092 196.69088918 120.4921875 207.390625 C113.89764619 215.45358644 106.63300117 218.57480444 96.61206055 220.7512207 C95.84075397 220.92027326 95.06944738 221.08932581 94.27476788 221.26350117 C82.82537667 223.71775887 71.283391 225.70707942 59.75565171 227.75258422 C56.37794773 228.35271876 53.0009982 228.95707155 49.62394714 229.56086731 C43.97069536 230.57102828 38.31694905 231.5783791 32.6628418 232.58374023 C25.42172182 233.87130373 18.18144865 235.1635665 10.94142628 236.45728588 C4.67805839 237.576453 -1.58568115 238.69353473 -7.84948564 239.81025529 C-9.84751362 240.16655016 -11.84549265 240.5231185 -13.84346581 240.87972069 C-17.56623462 241.54373275 -21.28929395 242.20608966 -25.01245117 242.86791992 C-26.10914627 243.06375671 -27.20584137 243.25959351 -28.33576965 243.46136475 C-54.0235441 248.01874203 -54.0235441 248.01874203 -61.80859375 243.38671875 C-83.83551956 227.4569147 -84.01385033 199.02013556 -88.55859375 174.0690918 C-89.29105897 170.04803011 -90.02986636 166.02816404 -90.77051735 162.0086031 C-91.34970826 158.86111446 -91.92540978 155.71299483 -92.50013351 152.56468773 C-92.77092305 151.08365544 -93.04275454 149.60281319 -93.31575394 148.12218666 C-100.19784491 110.74575816 -100.19784491 110.74575816 -92.1875 98.44140625 C-81.25409348 84.93409361 -64.04702019 83.26542177 -47.8125 80.9375 C-46.8225 80.9375 -45.8325 80.9375 -44.8125 80.9375 C-44.63509277 80.32946533 -44.45768555 79.72143066 -44.27490234 79.0949707 C-42.48767487 73.04406183 -40.5359564 67.07452765 -38.4375 61.125 C-38.13440918 60.25625244 -37.83131836 59.38750488 -37.51904297 58.49243164 C-35.78520351 53.55853756 -33.92723034 48.71050746 -31.9375 43.875 C-29.75337353 38.31409905 -28.65966069 32.93098447 -28.8125 26.9375 C-29.3075 25.9475 -29.3075 25.9475 -29.8125 24.9375 C-30.42453775 18.60526331 -30.19574275 12.46939868 -26.8125 6.9375 C-19.44512494 -1.24847229 -10.47836109 -2.92019899 0 0 Z M-18.8125 12.9375 C-20.01440901 16.54322704 -20.13920315 19.1477435 -19.8125 22.9375 C-18.01191719 25.93847135 -16.46112431 27.53430111 -13.5 29.375 C-9.67680106 30.17520443 -7.39272221 29.43468383 -3.8125 27.9375 C-0.89061617 25.24629121 0.07662769 23.29620452 1.25 19.5 C1.1635131 14.5702468 -0.33725413 13.3319262 -3.8125 9.9375 C-9.49443698 7.09653151 -14.25105661 9.13629718 -18.8125 12.9375 Z M0.5 35.375 C-5.41866067 38.0561027 -12.41119936 37.69858402 -18.8125 37.9375 C-22.80506942 46.27622035 -26.0531104 54.78493544 -29.125 63.5 C-29.58362187 64.78203078 -30.04260442 66.06393259 -30.50195312 67.34570312 C-32.81922442 73.00746664 -32.81922442 73.00746664 -33.8125 78.9375 C-27.38812456 79.13986477 -21.4554118 78.3773119 -15.13671875 77.2578125 C-14.13091263 77.08498749 -13.12510651 76.91216248 -12.08882141 76.73410034 C-8.89143298 76.18313149 -5.69574397 75.62291972 -2.5 75.0625 C-0.36533809 74.69341007 1.76942676 74.32491497 3.90429688 73.95703125 C13.34000865 72.32661406 22.76836491 70.66126422 32.1875 68.9375 C30.70479179 64.99514949 29.17519011 62.5521423 26.25 59.5 C21.91917678 54.83334558 17.97403894 49.96612851 14.08227539 44.93579102 C12.78954276 43.26528226 11.49086043 41.5997282 10.1875 39.9375 C9.73568359 39.35806641 9.28386719 38.77863281 8.81835938 38.18164062 C7.65469427 36.72833706 6.42596426 35.32761294 5.1875 33.9375 C2.97346216 33.78028258 2.97346216 33.78028258 0.5 35.375 Z M38.44884777 75.24821377 C35.00534171 75.86176956 31.55915972 76.45995246 28.11334229 77.06036377 C22.33582732 78.0693987 16.56037815 79.08961646 10.78613281 80.1171875 C4.14633177 81.2986896 -2.49613293 82.46411537 -9.14033341 83.62060237 C-15.58368503 84.74235581 -22.02530919 85.87372909 -28.46611786 87.00998688 C-31.18458034 87.48950934 -33.90353132 87.96610005 -36.62293243 88.44026947 C-40.43042268 89.10485639 -44.23530395 89.78367703 -48.04003906 90.46386719 C-49.14478577 90.65520233 -50.24953247 90.84653748 -51.38775635 91.04367065 C-64.95784864 93.49894307 -77.44954873 96.19667916 -85.8125 107.9375 C-89.45914113 118.87742339 -85.88475864 132.20741402 -83.890625 143.2421875 C-83.58544843 144.97731408 -83.28116576 146.71259808 -82.97772217 148.44802856 C-82.34276452 152.06484545 -81.69994728 155.68014042 -81.05078125 159.29443359 C-80.22744132 163.87975683 -79.41957473 168.46763033 -78.61714554 173.05665398 C-77.99035748 176.6352948 -77.35743723 180.21282959 -76.72255707 183.79004288 C-76.42307679 185.47914294 -76.12489816 187.16847443 -75.82816315 188.85805893 C-72.62727085 212.79624062 -72.62727085 212.79624062 -60.14453125 232.4296875 C-47.55755887 240.48757269 -24.74905107 233.02886961 -11.44303393 230.62678623 C-8.03111258 230.01355388 -4.61659018 229.41512701 -1.20240784 228.81463623 C4.52551614 227.80499256 10.25150089 226.78491646 15.97631836 225.7578125 C22.55325552 224.57790348 29.13256509 223.41209342 35.7134462 222.25439763 C42.78117289 221.01092442 49.84708495 219.75737047 56.91249347 218.50080013 C58.92179596 218.14410624 60.93140896 217.78921114 62.94110298 217.43473053 C90.65992654 214.44249689 90.65992654 214.44249689 112.625 199.75 C118.92823089 188.40418439 114.2356747 172.52692471 112.046875 160.43359375 C111.71934481 158.57916797 111.39263968 156.72459631 111.06671143 154.86988831 C110.3848716 151.00505084 109.69486862 147.1417928 108.99853516 143.27954102 C108.11284755 138.36466156 107.24516363 133.44681494 106.38329697 128.52770901 C105.71181181 124.70440918 105.03204469 120.8826177 104.34973907 117.06123543 C104.02704389 115.24979722 103.70652423 113.43796988 103.38835907 111.62573051 C100.40890176 90.01804787 100.40890176 90.01804787 88.1875 72.9375 C72.96927619 66.83511392 53.87306829 72.48754149 38.44884777 75.24821377 Z " fill="url(#gradient1)"  transform="translate(270.8125,5.0625)"/>
<path d="M0 0 C7.91849305 7.11296496 13.36166535 17.90449599 14.05078125 28.51953125 C14.21719957 40.70967289 12.71364091 50.77864375 4.84765625 60.390625 C4.29464844 61.07898438 3.74164063 61.76734375 3.171875 62.4765625 C-3.89663728 70.37755481 -14.46456961 75.85402868 -25.0625 76.59375 C-37.08390675 76.77250698 -46.60040516 74.89571961 -56.15234375 67.390625 C-56.77882813 66.93816406 -57.4053125 66.48570312 -58.05078125 66.01953125 C-65.05055515 60.62450901 -69.78429975 52.2732142 -71.77734375 43.703125 C-73.30271271 30.22903253 -71.23794384 16.57246145 -63.15234375 5.390625 C-47.0380747 -12.95388402 -19.23469686 -14.38238676 0 0 Z M-51.15234375 8.390625 C-51.15234375 9.380625 -51.15234375 10.370625 -51.15234375 11.390625 C-49.15293998 13.21682814 -47.18498685 14.83291059 -45.02734375 16.453125 C-44.39280273 16.93990723 -43.75826172 17.42668945 -43.10449219 17.92822266 C-37.21282387 22.4175982 -31.18786636 26.71494873 -25.13574219 30.98388672 C-21.24868908 33.74080449 -17.38960709 36.53664195 -13.52734375 39.328125 C-12.37153809 40.162229 -12.37153809 40.162229 -11.19238281 41.01318359 C-10.4650293 41.5386377 -9.73767578 42.0640918 -8.98828125 42.60546875 C-8.3442334 43.07073975 -7.70018555 43.53601074 -7.03662109 44.01538086 C-5.68258185 45.00362951 -4.35194221 46.02423772 -3.03759766 47.06469727 C-1.26383102 48.58238529 -1.26383102 48.58238529 0.84765625 48.390625 C4.45302129 39.52743595 5.57185465 30.42716253 2.41015625 21.203125 C-1.87421278 12.02233423 -8.84914492 5.50875294 -18.0390625 1.38671875 C-28.7890088 -2.05272454 -42.6920119 0.6392595 -51.15234375 8.390625 Z M-59.15234375 18.390625 C-62.95318715 26.30904874 -63.47503708 34.65895388 -61.49609375 43.234375 C-57.81105146 53.52707934 -50.69454411 59.53974053 -41.15234375 64.390625 C-33.43536439 68.00282811 -24.42951007 67.09300942 -16.5234375 64.44921875 C-12.6440283 62.71722551 -9.15819228 60.40486976 -6.15234375 57.390625 C-6.15234375 56.730625 -6.15234375 56.070625 -6.15234375 55.390625 C-8.40588386 53.53314303 -10.66982848 51.79571979 -13.02734375 50.078125 C-13.7426123 49.54977051 -14.45788086 49.02141602 -15.19482422 48.47705078 C-17.50795094 46.77314262 -19.82886448 45.08038443 -22.15234375 43.390625 C-22.91095703 42.83810059 -23.66957031 42.28557617 -24.45117188 41.71630859 C-31.05288573 36.91493359 -37.67740889 32.1457539 -44.33203125 27.41796875 C-44.97897949 26.95793457 -45.62592773 26.49790039 -46.29248047 26.02392578 C-47.49845823 25.16748844 -48.70573857 24.31288122 -49.91455078 23.46044922 C-52.153804 21.87202345 -54.20664087 20.33632788 -56.15234375 18.390625 C-57.14234375 18.390625 -58.13234375 18.390625 -59.15234375 18.390625 Z " fill="#A681ED" transform="translate(314.15234375,124.609375)"/>
<path d="M0 0 C4.29 0 8.58 0 13 0 C16.96 7.26 20.92 14.52 25 22 C25.33 14.74 25.66 7.48 26 0 C29.63 0 33.26 0 37 0 C37 14.52 37 29.04 37 44 C32.71 44 28.42 44 24 44 C21.49772482 41.49772482 20.30257958 40.00352296 18.73828125 36.98828125 C18.38032471 36.30548096 18.02236816 35.62268066 17.65356445 34.91918945 C17.21101318 34.05898193 16.76846191 33.19877441 16.3125 32.3125 C14.889375 29.569375 13.46625 26.82625 12 24 C11.67 30.6 11.34 37.2 11 44 C7.37 44 3.74 44 0 44 C0 29.48 0 14.96 0 0 Z " fill="#9581DC" transform="translate(4,304)"/>
<path d="M0 0 C1.67163195 0.65411685 3.34015202 1.31653318 5 2 C6.34246312 1.35191436 7.67432801 0.68177416 9 0 C14.31237628 -0.42161717 17.73772763 -0.53159711 22 3 C24.74605762 6.79154462 25.36629197 9.34832129 25.25 14 C25.21132812 15.69189453 25.21132812 15.69189453 25.171875 17.41796875 C24.90609786 22.95700593 24.50611337 28.4779416 24 34 C22.35425434 34.02688151 20.70838587 34.04634123 19.0625 34.0625 C17.68771484 34.07990234 17.68771484 34.07990234 16.28515625 34.09765625 C14 34 14 34 13 33 C12.84313751 31.44051458 12.74923361 29.87457332 12.68359375 28.30859375 C12.64169922 27.36435547 12.59980469 26.42011719 12.55664062 25.44726562 C12.51732422 24.45404297 12.47800781 23.46082031 12.4375 22.4375 C12.39431641 21.44041016 12.35113281 20.44332031 12.30664062 19.41601562 C12.20019702 16.9441585 12.09818072 14.4721969 12 12 C9.525 11.505 9.525 11.505 7 11 C6.97494385 11.6612085 6.9498877 12.32241699 6.92407227 13.00366211 C6.80846898 15.98182305 6.68558246 18.9596392 6.5625 21.9375 C6.52318359 22.97841797 6.48386719 24.01933594 6.44335938 25.09179688 C6.40146484 26.08115234 6.35957031 27.07050781 6.31640625 28.08984375 C6.27974854 29.00628662 6.24309082 29.92272949 6.20532227 30.86694336 C6 33 6 33 5 34 C3.33570949 34.09823937 1.66718069 34.12973631 0 34.125 C-1.36125 34.12886719 -1.36125 34.12886719 -2.75 34.1328125 C-5 34 -5 34 -6 33 C-6.15686249 31.44051458 -6.25076639 29.87457332 -6.31640625 28.30859375 C-6.35830078 27.36435547 -6.40019531 26.42011719 -6.44335938 25.44726562 C-6.48267578 24.45404297 -6.52199219 23.46082031 -6.5625 22.4375 C-6.60568359 21.44041016 -6.64886719 20.44332031 -6.69335938 19.41601562 C-6.79980298 16.9441585 -6.90181928 14.4721969 -7 12 C-8.98 12 -10.96 12 -13 12 C-12.99476318 12.63091553 -12.98952637 13.26183105 -12.98413086 13.91186523 C-12.96342174 16.75373347 -12.95035934 19.59558588 -12.9375 22.4375 C-12.92912109 23.43072266 -12.92074219 24.42394531 -12.91210938 25.44726562 C-12.90888672 26.39150391 -12.90566406 27.33574219 -12.90234375 28.30859375 C-12.89710693 29.18314209 -12.89187012 30.05769043 -12.88647461 30.95874023 C-13 33 -13 33 -14 34 C-17.63 34 -21.26 34 -25 34 C-25 23.11 -25 12.22 -25 1 C-20.71 1 -16.42 1 -12 1 C-8.34379034 -0.82810483 -4.00912218 -0.28500869 0 0 Z " fill="#9581DC" transform="translate(146,314)"/>
<path d="M0 0 C1.02802734 0.04833984 2.05605469 0.09667969 3.11523438 0.14648438 C4.18708984 0.20255859 5.25894531 0.25863281 6.36328125 0.31640625 C7.44673828 0.36861328 8.53019531 0.42082031 9.64648438 0.47460938 C12.32320716 0.60431841 14.99956013 0.73928558 17.67578125 0.87890625 C18.80869573 7.01968871 18.89662538 12.96298284 18.92578125 19.19140625 C18.94640625 20.28130859 18.96703125 21.37121094 18.98828125 22.49414062 C19.02672118 30.48484189 18.42151394 37.39108365 13.36328125 43.81640625 C7.59975488 48.23957765 1.69909994 48.45404416 -5.32421875 47.87890625 C-7.76532392 47.37594319 -9.96320038 46.70013003 -12.32421875 45.87890625 C-12.32421875 41.91890625 -12.32421875 37.95890625 -12.32421875 33.87890625 C-10.96296875 34.20890625 -9.60171875 34.53890625 -8.19921875 34.87890625 C-3.28874582 35.96754883 0.82894108 36.49451964 5.67578125 34.87890625 C5.67578125 34.21890625 5.67578125 33.55890625 5.67578125 32.87890625 C4.68578125 33.37390625 4.68578125 33.37390625 3.67578125 33.87890625 C-2.14677934 34.27365612 -6.133078 33.87379515 -11.32421875 30.87890625 C-15.85720164 25.27232214 -16.79856957 20.99416855 -16.32421875 13.87890625 C-14.97618312 8.29570358 -12.82887641 4.59524882 -8.32421875 0.87890625 C-5.18571945 -0.16726018 -3.27383572 -0.16278741 0 0 Z M-1.88671875 10.94140625 C-4.61866485 13.7103021 -4.61866485 13.7103021 -4.82421875 17.44140625 C-4.31005502 20.97628192 -4.02064758 22.55439864 -1.32421875 24.87890625 C1.17578125 25.54557292 1.17578125 25.54557292 3.67578125 24.87890625 C6.37221008 22.55439864 6.66161752 20.97628192 7.17578125 17.44140625 C6.55417983 13.01249613 5.10181305 11.63644404 1.67578125 8.87890625 C0.25737914 8.77440468 0.25737914 8.77440468 -1.88671875 10.94140625 Z " fill="#9581DC" transform="translate(223.32421875,314.12109375)"/>
<path d="M0 0 C1.07765625 0.11085938 2.1553125 0.22171875 3.265625 0.3359375 C4.08546875 0.43132812 4.9053125 0.52671875 5.75 0.625 C7.61327953 5.92284349 9.46428412 11.22475852 11.30419922 16.53076172 C11.93140105 18.33400745 12.56190151 20.13610945 13.19580078 21.93701172 C14.10805594 24.53056602 15.00824472 27.12804514 15.90625 29.7265625 C16.19060913 30.5267984 16.47496826 31.3270343 16.76794434 32.15151978 C17.02821411 32.91185516 17.28848389 33.67219055 17.55664062 34.45556641 C17.78758423 35.11730865 18.01852783 35.7790509 18.25646973 36.46084595 C18.75 38.625 18.75 38.625 18.75 44.625 C14.79 44.625 10.83 44.625 6.75 44.625 C4.75 39.625 4.75 39.625 4.75 36.625 C0.46 36.625 -3.83 36.625 -8.25 36.625 C-8.91 39.265 -9.57 41.905 -10.25 44.625 C-14.54 44.625 -18.83 44.625 -23.25 44.625 C-22.63241965 39.20926115 -21.36698515 34.30821418 -19.66796875 29.13671875 C-19.41251785 28.35230911 -19.15706696 27.56789948 -18.89387512 26.75971985 C-18.35493789 25.11405684 -17.81270507 23.46946978 -17.26733398 21.82592773 C-16.43577165 19.30726512 -15.62690733 16.78198965 -14.81835938 14.25585938 C-14.29044016 12.65319137 -13.76118966 11.05096116 -13.23046875 9.44921875 C-12.99176559 8.69404465 -12.75306244 7.93887054 -12.50712585 7.16081238 C-10.78156118 2.07272556 -10.78156118 2.07272556 -8.4543457 0.11254883 C-5.50687835 -0.53936083 -2.99687319 -0.32574709 0 0 Z M-2.25 11.625 C-4.87297943 19.44074297 -4.87297943 19.44074297 -5.25 27.625 C-2.94 27.625 -0.63 27.625 1.75 27.625 C1.15984815 22.11691603 0.18336231 16.97621931 -1.25 11.625 C-1.58 11.625 -1.91 11.625 -2.25 11.625 Z " fill="#9581DC" transform="translate(319.25,303.375)"/>
<path d="M0 0 C3.63 0 7.26 0 11 0 C12.81115956 1.81115956 12.38199448 4.61278227 12.5625 7.0625 C12.64628906 8.16722656 12.73007812 9.27195312 12.81640625 10.41015625 C12.87699219 11.26480469 12.93757813 12.11945313 13 13 C13.66 12.67 14.32 12.34 15 12 C20.85033003 11.45284683 26.16648953 11.31732536 31 15 C35.32796023 20.27470153 35.66805205 26.25050468 35.453125 32.8671875 C34.61816735 38.63991195 32.03155683 42.14257661 27.8125 46 C22.68689688 47.82243667 17.14163455 47.71387818 12 46 C8.04 46 4.08 46 0 46 C0 30.82 0 15.64 0 0 Z M13.25 23 C11.05668443 25.92442076 10.61036425 26.63722696 10.4375 30.0625 C10.70021166 33.94819868 10.70021166 33.94819868 12.6875 36.5 C14.91464465 38.12230448 14.91464465 38.12230448 17.5 38.625 C20.27297083 38.17377034 20.27297083 38.17377034 22.375 35.4375 C24.33631104 31.2885728 24.21667536 29.3800313 23 25 C21.84433554 22.53849534 21.84433554 22.53849534 20 21 C15.97242945 20.60788553 15.97242945 20.60788553 13.25 23 Z " fill="#9581DC" transform="translate(479,302)"/>
<path d="M0 0 C3.44818595 2.32552076 5.83169872 4.74431358 7.4375 8.625 C8.4679878 17.64176829 8.4679878 17.64176829 5.6875 21.8125 C2.4296875 22.32421875 2.4296875 22.32421875 -1.4375 22.5 C-3.35949219 22.59861328 -3.35949219 22.59861328 -5.3203125 22.69921875 C-6.30773437 22.73660156 -7.29515625 22.77398437 -8.3125 22.8125 C-4.0225 22.8125 0.2675 22.8125 4.6875 22.8125 C4.6875 26.1125 4.6875 29.4125 4.6875 32.8125 C-8.36188831 35.63986747 -8.36188831 35.63986747 -15.3125 32.8125 C-19.60731764 29.98047174 -23.22349946 27.0155026 -24.3125 21.8125 C-24.94262489 15.74463072 -24.45091666 10.14780832 -21.3125 4.8125 C-15.46665486 -1.62431855 -8.02220641 -2.87588532 0 0 Z M-10.3125 7.8125 C-10.9725 9.4625 -11.6325 11.1125 -12.3125 12.8125 C-9.6725 12.8125 -7.0325 12.8125 -4.3125 12.8125 C-4.6425 11.1625 -4.9725 9.5125 -5.3125 7.8125 C-6.9625 7.8125 -8.6125 7.8125 -10.3125 7.8125 Z " fill="#9581DC" transform="translate(558.3125,315.1875)"/>
<path d="M0 0 C3.44818595 2.32552076 5.83169872 4.74431358 7.4375 8.625 C8.4679878 17.64176829 8.4679878 17.64176829 5.6875 21.8125 C2.4296875 22.32421875 2.4296875 22.32421875 -1.4375 22.5 C-3.35949219 22.59861328 -3.35949219 22.59861328 -5.3203125 22.69921875 C-6.30773437 22.73660156 -7.29515625 22.77398437 -8.3125 22.8125 C-4.0225 22.8125 0.2675 22.8125 4.6875 22.8125 C4.6875 26.1125 4.6875 29.4125 4.6875 32.8125 C-8.36188831 35.63986747 -8.36188831 35.63986747 -15.3125 32.8125 C-19.60731764 29.98047174 -23.22349946 27.0155026 -24.3125 21.8125 C-24.94262489 15.74463072 -24.45091666 10.14780832 -21.3125 4.8125 C-15.46665486 -1.62431855 -8.02220641 -2.87588532 0 0 Z M-10.3125 7.8125 C-10.9725 9.4625 -11.6325 11.1125 -12.3125 12.8125 C-9.6725 12.8125 -7.0325 12.8125 -4.3125 12.8125 C-4.6425 11.1625 -4.9725 9.5125 -5.3125 7.8125 C-6.9625 7.8125 -8.6125 7.8125 -10.3125 7.8125 Z " fill="#9581DC" transform="translate(269.3125,315.1875)"/>
<path d="M0 0 C5.21472756 3.68846584 7.41305604 7.54280565 8.5625 13.8125 C8.5625 20.99050254 6.90297913 26.24368144 2 31.625 C-2.05871938 34.72931755 -6.44937984 35.06753171 -11.4375 34.8125 C-16.12537609 33.97877477 -19.44062302 32.78381603 -22.875 29.4375 C-26.37892452 23.5509068 -27.27919923 18.63961598 -26.4375 11.8125 C-24.75162727 6.48149705 -22.20006566 2.86542671 -17.4375 -0.1875 C-11.76602986 -2.07799005 -5.62952086 -1.94474357 0 0 Z M-13.1875 9.4375 C-15.54596117 13.91857621 -15.75286211 16.74377285 -14.3125 21.625 C-12.77893037 25.01838341 -12.77893037 25.01838341 -9.75 25.75 C-8.986875 25.770625 -8.22375 25.79125 -7.4375 25.8125 C-4.56403347 22.93903347 -3.13008299 20.8527246 -3 16.8125 C-3.20880969 13.13744943 -3.90463626 10.60738413 -6.4375 7.8125 C-9.60223817 7.10043391 -10.79370078 7.21468644 -13.1875 9.4375 Z " fill="#9581DC" transform="translate(72.4375,315.1875)"/>
<path d="M0 0 C1.29808594 -0.02578125 2.59617187 -0.0515625 3.93359375 -0.078125 C7.85731689 0.27665729 9.5996404 0.67905305 12.5625 3.25 C16.1351809 9.17599028 15.95498511 14.78109949 15.8125 21.5625 C15.80734375 22.56345703 15.8021875 23.56441406 15.796875 24.59570312 C15.71753149 31.93993703 15.71753149 31.93993703 14.5625 34.25 C10.60095891 34.94180124 6.57561639 35.04934418 2.5625 35.25 C1.6240625 35.30414063 0.685625 35.35828125 -0.28125 35.4140625 C-5.13030002 35.5747238 -8.60729979 35.60142519 -12.4375 32.25 C-15.00939679 28.82080428 -14.939642 25.41060514 -14.4375 21.25 C-12.65273759 18.27760759 -10.58541945 15.82395973 -7.4375 14.25 C-5.56370395 14.17966231 -3.68748898 14.1656978 -1.8125 14.1875 C-0.30816406 14.20103516 -0.30816406 14.20103516 1.2265625 14.21484375 C1.99742187 14.22644531 2.76828125 14.23804688 3.5625 14.25 C3.2325 12.93 2.9025 11.61 2.5625 10.25 C-2.0575 10.91 -6.6775 11.57 -11.4375 12.25 C-11.4375 8.62 -11.4375 4.99 -11.4375 1.25 C-7.44315578 0.25141395 -4.10609295 0.04883361 0 0 Z M-2.4375 23.25 C-2.1075 24.24 -1.7775 25.23 -1.4375 26.25 C0.2125 26.25 1.8625 26.25 3.5625 26.25 C3.5625 24.6 3.5625 22.95 3.5625 21.25 C0.37759993 20.9726499 0.37759993 20.9726499 -2.4375 23.25 Z " fill="#9581DC" transform="translate(458.4375,313.75)"/>
<path d="M0 0 C1.29808594 -0.02578125 2.59617187 -0.0515625 3.93359375 -0.078125 C7.85731689 0.27665729 9.5996404 0.67905305 12.5625 3.25 C16.1351809 9.17599028 15.95498511 14.78109949 15.8125 21.5625 C15.80734375 22.56345703 15.8021875 23.56441406 15.796875 24.59570312 C15.71753149 31.93993703 15.71753149 31.93993703 14.5625 34.25 C10.60095891 34.94180124 6.57561639 35.04934418 2.5625 35.25 C1.6240625 35.30414063 0.685625 35.35828125 -0.28125 35.4140625 C-5.13030002 35.5747238 -8.60729979 35.60142519 -12.4375 32.25 C-15.00939679 28.82080428 -14.939642 25.41060514 -14.4375 21.25 C-12.65273759 18.27760759 -10.58541945 15.82395973 -7.4375 14.25 C-5.56370395 14.17966231 -3.68748898 14.1656978 -1.8125 14.1875 C-0.30816406 14.20103516 -0.30816406 14.20103516 1.2265625 14.21484375 C1.99742187 14.22644531 2.76828125 14.23804688 3.5625 14.25 C3.2325 12.93 2.9025 11.61 2.5625 10.25 C-2.0575 10.91 -6.6775 11.57 -11.4375 12.25 C-11.4375 8.62 -11.4375 4.99 -11.4375 1.25 C-7.44315578 0.25141395 -4.10609295 0.04883361 0 0 Z M-2.4375 23.25 C-2.1075 24.24 -1.7775 25.23 -1.4375 26.25 C0.2125 26.25 1.8625 26.25 3.5625 26.25 C3.5625 24.6 3.5625 22.95 3.5625 21.25 C0.37759993 20.9726499 0.37759993 20.9726499 -2.4375 23.25 Z " fill="#9581DC" transform="translate(389.4375,313.75)"/>
<path d="M0 0 C1.29808594 -0.02578125 2.59617188 -0.0515625 3.93359375 -0.078125 C7.85731689 0.27665729 9.5996404 0.67905305 12.5625 3.25 C16.1351809 9.17599028 15.95498511 14.78109949 15.8125 21.5625 C15.80734375 22.56345703 15.8021875 23.56441406 15.796875 24.59570312 C15.71753149 31.93993703 15.71753149 31.93993703 14.5625 34.25 C10.60095891 34.94180124 6.57561639 35.04934418 2.5625 35.25 C1.6240625 35.30414063 0.685625 35.35828125 -0.28125 35.4140625 C-5.13030002 35.5747238 -8.60729979 35.60142519 -12.4375 32.25 C-15.00939679 28.82080428 -14.939642 25.41060514 -14.4375 21.25 C-12.65273759 18.27760759 -10.58541945 15.82395973 -7.4375 14.25 C-5.56370395 14.17966231 -3.68748898 14.1656978 -1.8125 14.1875 C-0.30816406 14.20103516 -0.30816406 14.20103516 1.2265625 14.21484375 C1.99742187 14.22644531 2.76828125 14.23804688 3.5625 14.25 C3.2325 12.93 2.9025 11.61 2.5625 10.25 C-2.0575 10.91 -6.6775 11.57 -11.4375 12.25 C-11.4375 8.62 -11.4375 4.99 -11.4375 1.25 C-7.44315578 0.25141395 -4.10609295 0.04883361 0 0 Z M-2.4375 23.25 C-2.1075 24.24 -1.7775 25.23 -1.4375 26.25 C0.2125 26.25 1.8625 26.25 3.5625 26.25 C3.5625 24.6 3.5625 22.95 3.5625 21.25 C0.37759993 20.9726499 0.37759993 20.9726499 -2.4375 23.25 Z " fill="#9581DC" transform="translate(188.4375,313.75)"/>
<path d="M0 0 C3.96 0 7.92 0 12 0 C12.67364661 2.08108685 13.33866798 4.1649671 14 6.25 C14.37125 7.41015625 14.7425 8.5703125 15.125 9.765625 C16 13 16 13 16 17 C16.66 17 17.32 17 18 17 C18.0825 16.236875 18.165 15.47375 18.25 14.6875 C19.29310593 9.55889586 21.14935398 4.89525721 23 0 C26.96 0 30.92 0 35 0 C33.55932506 7.52792236 31.12995528 14.42113936 28.375 21.5625 C27.95476562 22.66658203 27.53453125 23.77066406 27.1015625 24.90820312 C26.07322908 27.60757836 25.03738143 30.30408901 24 33 C19.71 33 15.42 33 11 33 C9.34225872 29.00457274 7.69858795 25.0042862 6.0625 21 C5.35963867 19.31197266 5.35963867 19.31197266 4.64257812 17.58984375 C2.22983965 11.65346563 0.3695079 6.41528616 0 0 Z " fill="#9581DC" transform="translate(339,315)"/>
<path d="M0 0 C3.63 0 7.26 0 11 0 C11 14.52 11 29.04 11 44 C7.37 44 3.74 44 0 44 C0 29.48 0 14.96 0 0 Z " fill="#9682DD" transform="translate(102,304)"/>
<path d="M0 0 C3.3 0 6.6 0 10 0 C10 15.18 10 30.36 10 46 C6.7 46 3.4 46 0 46 C0 30.82 0 15.64 0 0 Z " fill="#9682DD" transform="translate(519,302)"/>
<path d="M0 0 C3.3 0 6.6 0 10 0 C10 15.18 10 30.36 10 46 C6.7 46 3.4 46 0 46 C0 30.82 0 15.64 0 0 Z " fill="#9682DD" transform="translate(429,302)"/>
<path d="M0 0 C3.3 0 6.6 0 10 0 C10 10.89 10 21.78 10 33 C6.7 33 3.4 33 0 33 C0 22.11 0 11.22 0 0 Z " fill="#9682DD" transform="translate(411,315)"/>
<path d="M0 0 C1.97337049 3.32357135 1.49062838 6.18058245 1.1875 10 C-0.8125 12 -0.8125 12 -4.75 12.375 C-7.61801846 12.28635216 -8.53417611 12.21085143 -10.875 10.4375 C-12.22882641 6.91755134 -11.81126535 4.59555526 -10.8125 1 C-7.63141101 -1.61303738 -3.62462151 -1.99979118 0 0 Z " fill="#9581DC" transform="translate(420.8125,300)"/>
</svg>
